<svg xmlns="http://www.w3.org/2000/svg" viewBox="0 0 96 96" role="img" aria-label="DAE KWANG TECH DK mark">
  <defs>
    <linearGradient id="dkApprovedBlue" x1="18" y1="16" x2="78" y2="80" gradientUnits="userSpaceOnUse">
      <stop stop-color="#1E63D6"/>
      <stop offset=".48" stop-color="#2E8AF0"/>
      <stop offset="1" stop-color="#76C7FF"/>
    </linearGradient>
    <linearGradient id="dkApprovedPanel" x1="12" y1="10" x2="86" y2="88" gradientUnits="userSpaceOnUse">
      <stop stop-color="#071A33"/>
      <stop offset=".62" stop-color="#0B2B58"/>
      <stop offset="1" stop-color="#082043"/>
    </linearGradient>
    <filter id="dkApprovedShadow" x="-18%" y="-18%" width="136%" height="136%" color-interpolation-filters="sRGB">
      <feDropShadow dx="0" dy="10" stdDeviation="10" flood-color="#00142D" flood-opacity=".28"/>
    </filter>
  </defs>
  <rect x="7" y="7" width="82" height="82" rx="21" fill="url(#dkApprovedPanel)" filter="url(#dkApprovedShadow)"/>
  <path d="M18 18.5h60" fill="none" stroke="#6FBFFF" stroke-opacity=".28" stroke-width="2" stroke-linecap="round"/>
  <path d="M24 68V28h17.5c13.9 0 22.9 7.5 22.9 20S55.4 68 41.5 68H24Zm10.6-9.4h6.1c7.5 0 12.2-3.7 12.2-10.6s-4.7-10.6-12.2-10.6h-6.1v21.2Z" fill="#FFFFFF"/>
  <path d="M61.2 28h13.9L56.8 47.5 77 68H62.6L45.7 50.1 61.2 28Z" fill="url(#dkApprovedBlue)"/>
  <path d="M70.5 33.4h-5.3L50.9 49.3 67.5 65.5h5.8L57.3 47.6l13.2-14.2Z" fill="#061B35" opacity=".92"/>
  <path d="M25 76h46" fill="none" stroke="#76C7FF" stroke-opacity=".18" stroke-width="2" stroke-linecap="round"/>
</svg>
