<svg xmlns="http://www.w3.org/2000/svg" viewBox="0 0 360 96" role="img" aria-label="DAE KWANG TECH 대광테크 로고 v2">
  <defs>
    <linearGradient id="g2" x1="12" y1="12" x2="78" y2="78" gradientUnits="userSpaceOnUse">
      <stop stop-color="#0F47AF"/>
      <stop offset="1" stop-color="#5DA5E0"/>
    </linearGradient>
  </defs>
  <rect x="6" y="10" width="76" height="76" rx="22" fill="#FFFFFF" stroke="rgba(11,29,58,.18)" stroke-width="2"/>
  <path d="M21.5 63V29h14.8c12.2 0 20 6.4 20 17s-7.8 17-20 17H21.5Zm9.8-8.8h4.9c6.1 0 9.8-2.8 9.8-8.2s-3.7-8.2-9.8-8.2h-4.9v16.4Z" fill="#0B1D3A"/>
  <path d="M53.8 29h12.6L50.2 45.8 68.5 63H55.3L40.1 47.2 53.8 29Z" fill="url(#g2)"/>
  <path d="M62.6 33.5h-4.8L44.2 47.2 59.1 61h5.2L49.8 45.8l12.8-12.3Z" fill="#FFFFFF" opacity=".88"/>
  <text x="101" y="44" fill="#0B1D3A" font-family="Arial, Helvetica, sans-serif" font-size="29" font-weight="900" letter-spacing="1.4">DAE KWANG</text>
  <text x="301" y="44" fill="#0F47AF" font-family="Arial, Helvetica, sans-serif" font-size="29" font-weight="900" letter-spacing="1.1">TECH</text>
  <text x="103" y="70" fill="#7D8591" font-family="Arial, Helvetica, sans-serif" font-size="16" font-weight="800" letter-spacing="2.7">대광테크</text>
</svg>
