<svg xmlns="http://www.w3.org/2000/svg" viewBox="0 0 512 512" role="img" aria-label="대광테크 앱 아이콘 v2">
  <defs>
    <linearGradient id="appv2" x1="104" y1="88" x2="408" y2="430" gradientUnits="userSpaceOnUse">
      <stop stop-color="#0F47AF"/>
      <stop offset="1" stop-color="#5DA5E0"/>
    </linearGradient>
  </defs>
  <rect width="512" height="512" rx="122" fill="#0B1D3A"/>
  <rect x="58" y="58" width="396" height="396" rx="102" fill="rgba(255,255,255,.08)" stroke="rgba(255,255,255,.2)" stroke-width="8"/>
  <path d="M132 348V164h80c66 0 110 35 110 92s-44 92-110 92h-80Zm56-49h27c33 0 53-15 53-43s-20-43-53-43h-27v86Z" fill="#FFFFFF"/>
  <path d="M316 164h70l-91 91 100 93h-75l-86-88 82-96Z" fill="url(#appv2)"/>
  <path d="M366 190h-27l-75 71 82 74h31l-80-81 69-64Z" fill="#0B1D3A" opacity=".94"/>
</svg>
