<svg xmlns="http://www.w3.org/2000/svg" viewBox="0 0 450 96" role="img" aria-label="DAE KWANG TECH">
  <defs>
    <linearGradient id="dkLockLightBlue" x1="18" y1="16" x2="78" y2="80" gradientUnits="userSpaceOnUse">
      <stop stop-color="#1E63D6"/>
      <stop offset=".48" stop-color="#2E8AF0"/>
      <stop offset="1" stop-color="#76C7FF"/>
    </linearGradient>
    <linearGradient id="dkLockLightPanel" x1="12" y1="10" x2="86" y2="88" gradientUnits="userSpaceOnUse">
      <stop stop-color="#071A33"/>
      <stop offset=".62" stop-color="#0B2B58"/>
      <stop offset="1" stop-color="#082043"/>
    </linearGradient>
  </defs>
  <rect x="6" y="8" width="80" height="80" rx="20" fill="url(#dkLockLightPanel)"/>
  <path d="M17 19.5h58" fill="none" stroke="#6FBFFF" stroke-opacity=".28" stroke-width="2" stroke-linecap="round"/>
  <path d="M23.5 66V30h15.8c12.5 0 20.6 6.8 20.6 18s-8.1 18-20.6 18H23.5Zm9.5-8.4h5.5c6.8 0 11-3.3 11-9.6s-4.2-9.6-11-9.6H33v19.2Z" fill="#FFFFFF"/>
  <path d="M57 30h12.5L53 47.6 71.2 66H58.3L43.1 49.9 57 30Z" fill="url(#dkLockLightBlue)"/>
  <path d="M65.4 34.9h-4.8L47.7 49.2 62.7 63.8H68L53.6 47.7l11.8-12.8Z" fill="#061B35" opacity=".92"/>
  <text x="108" y="43" fill="#F8FAFC" font-family="Arial, Helvetica, sans-serif" font-size="28" font-weight="900" letter-spacing="1.2">DAE KWANG</text>
  <text x="336" y="43" fill="#76C7FF" font-family="Arial, Helvetica, sans-serif" font-size="28" font-weight="900" letter-spacing="1">TECH</text>
  <path d="M109 58h44" stroke="#76C7FF" stroke-opacity=".52" stroke-width="2" stroke-linecap="round"/>
  <path d="M224 58h36" stroke="#D7ECFF" stroke-opacity=".42" stroke-width="2" stroke-linecap="round"/>
  <text x="109" y="76" fill="#B7C7DD" font-family="Arial, Helvetica, sans-serif" font-size="13" font-weight="800" letter-spacing="2.7">PRECISION MAKES VALUE</text>
</svg>
