<svg xmlns="http://www.w3.org/2000/svg" viewBox="0 0 96 96" role="img" aria-label="대광테크 DK 마크 v2">
  <defs>
    <linearGradient id="markv2" x1="18" y1="16" x2="78" y2="80" gradientUnits="userSpaceOnUse">
      <stop stop-color="#0F47AF"/>
      <stop offset="1" stop-color="#5DA5E0"/>
    </linearGradient>
  </defs>
  <rect x="8" y="8" width="80" height="80" rx="24" fill="#0B1D3A"/>
  <rect x="15" y="15" width="66" height="66" rx="20" fill="rgba(255,255,255,.08)" stroke="rgba(255,255,255,.2)" stroke-width="2"/>
  <path d="M28 64V32h14c11.2 0 18.4 6 18.4 16S53.2 64 42 64H28Zm9.2-8.3h4.6c5.7 0 9.1-2.7 9.1-7.7s-3.4-7.7-9.1-7.7h-4.6v15.4Z" fill="#FFFFFF"/>
  <path d="M58.1 32h11.8L54.7 47.8 72 64H59.7L45.4 49.1 58.1 32Z" fill="url(#markv2)"/>
  <path d="M66.4 36.2h-4.5L49.1 49 63.1 62h4.9L54.3 47.8l12.1-11.6Z" fill="#0B1D3A" opacity=".92"/>
</svg>
