<svg xmlns="http://www.w3.org/2000/svg" viewBox="0 0 348 92" role="img" aria-label="DAE KWANG TECH 대광테크 로고">
  <defs>
    <linearGradient id="g" x1="14" y1="13" x2="72" y2="71" gradientUnits="userSpaceOnUse">
      <stop stop-color="#0F47AF"/>
      <stop offset="1" stop-color="#5DA5E0"/>
    </linearGradient>
  </defs>
  <rect x="6" y="10" width="72" height="72" rx="20" fill="#FFFFFF" stroke="rgba(11,29,58,.16)"/>
  <path d="M21 61V30h13.8c11 0 18.2 5.8 18.2 15.5S45.8 61 34.8 61H21Zm9-8.3h4.6c5.5 0 8.7-2.5 8.7-7.2s-3.2-7.2-8.7-7.2H30v14.4Z" fill="#0B1D3A"/>
  <path d="M50.2 30h11.2L47 45.2 63 61H51.3L37.6 46.2 50.2 30Z" fill="url(#g)"/>
  <path d="M58.2 34.1h-4.3L41.7 46.3 55 59h4.8L46.9 45.2l11.3-11.1Z" fill="#FFFFFF" opacity=".88"/>
  <text x="96" y="43" fill="#0B1D3A" font-family="Arial, Helvetica, sans-serif" font-size="28" font-weight="900" letter-spacing="1.4">DAE KWANG</text>
  <text x="290" y="43" fill="#0F47AF" font-family="Arial, Helvetica, sans-serif" font-size="28" font-weight="900" letter-spacing="1.1">TECH</text>
  <text x="98" y="67" fill="#7D8591" font-family="Arial, Helvetica, sans-serif" font-size="15" font-weight="800" letter-spacing="2.5">대광테크</text>
</svg>
