<svg xmlns="http://www.w3.org/2000/svg" viewBox="0 0 72 72" role="img" aria-label="대광테크 DK 로고 마크">
  <defs>
    <linearGradient id="g" x1="14" y1="12" x2="58" y2="60" gradientUnits="userSpaceOnUse">
      <stop stop-color="#0F47AF"/>
      <stop offset="1" stop-color="#5DA5E0"/>
    </linearGradient>
  </defs>
  <rect x="5" y="5" width="62" height="62" rx="18" fill="#FFFFFF" stroke="rgba(11,29,58,.16)"/>
  <path d="M18 49V22h12.2c9.7 0 16.1 5.1 16.1 13.5S39.9 49 30.2 49H18Zm8.2-7.2h4c4.9 0 7.8-2.2 7.8-6.3s-2.9-6.3-7.8-6.3h-4v12.6Z" fill="#0B1D3A"/>
  <path d="M44.3 22h9.9L41.4 35.1 55 49H44.8L32.3 36.1 44.3 22Z" fill="url(#g)"/>
  <path d="M51.3 25.7h-3.9L36.7 36.2 48.3 47h4.4L41.4 35.2l9.9-9.5Z" fill="#FFFFFF" opacity=".88"/>
</svg>
